<svg xmlns="http://www.w3.org/2000/svg" viewBox="0 0 512 512"><defs><style>.cls-1{fill:#524896;}.cls-2{fill:#6058a1;}.cls-3{fill:#b7177d;}.cls-4{fill:#ac3030;}.cls-5{fill:#cf4849;}.cls-6{fill:#e9bdc1;}.cls-7{fill:#8f2f2f;}.cls-8{fill:#fff;}.cls-9{fill:#f6ea49;}.cls-10{fill:#cea9ad;}.cls-11{fill:#802f2e;}.cls-12{fill:#d8d8d8;}.cls-13{fill:none;stroke:#2f3b71;stroke-linecap:round;stroke-miterlimit:10;stroke-width:10px;}.cls-14{fill:#df9fc2;}.cls-15{fill:#ca95b6;}.cls-16{fill:#b387a4;}.cls-17{fill:#cd458f;}.cls-18{fill:#6798d1;}.cls-19{fill:#8c2a2a;}</style></defs><title>Gifts</title><g id="BULINE"><circle class="cls-1" cx="256" cy="256" r="256"/></g><g id="Icons"><path class="cls-2" d="M459.7,100.93a204.25,204.25,0,0,1-72,147.4c-.77.66-1.55,1.31-2.34,2a205,205,0,0,1-190,37.83A202.88,202.88,0,0,1,166,276.6a205.16,205.16,0,0,1-42.22-27.36q-2.37-2-4.68-4.05h0A204.14,204.14,0,0,1,50.77,103h0a257.34,257.34,0,0,1,78.06-69.16h0A256.09,256.09,0,0,1,459.7,100.93Z"/><path class="cls-3" d="M479.68,380.61a256.09,256.09,0,0,1-447.36,0Z"/><path class="cls-4" d="M224.68,112.3a38.35,38.35,0,1,1-8.53-53.53A38.33,38.33,0,0,1,224.68,112.3Z"/><ellipse class="cls-5" cx="182.96" cy="82.05" rx="35.99" ry="25.12" transform="translate(9.14 182.02) rotate(-54.06)"/><path class="cls-6" d="M274.16,132.68H235c-59.47,0-107.67,73.1-107.67,117.59H381.83C381.83,205.78,333.63,132.68,274.16,132.68Z"/><path class="cls-7" d="M159.9,220.66H345.35a46.27,46.27,0,0,1,46.27,46.27v9.68a0,0,0,0,1,0,0h-278a0,0,0,0,1,0,0v-9.68a46.27,46.27,0,0,1,46.27-46.27Z"/><path class="cls-8" d="M132.31,222.51s-13.58-86.76,82.92-120.2c0,0,56-13.55,62.62-39.76a19.6,19.6,0,0,1,2.73-6.37c3.46-5,11-12.06,23.51-5.47,0,0,1.12.63,3,1.87,50.09,33.63,35.67,110.71-23,124.83-15.62,3.77-35.14,5.78-59.28,4.2C224.79,181.61,161.93,179.51,132.31,222.51Z"/><circle class="cls-9" cx="268.19" cy="140.02" r="16.84"/><circle class="cls-4" cx="227.05" cy="201.08" r="16.84"/><circle class="cls-4" cx="327.26" cy="184.25" r="16.84"/><path class="cls-10" d="M197.45,220.65a112.51,112.51,0,0,1,3-37c-20.93,3.57-50.43,13.17-68.11,38.83-1,3.18-1.93,6.33-2.66,9.42a46.07,46.07,0,0,1,30.25-11.28Z"/><path class="cls-11" d="M197.68,222.51s-.1-.66-.23-1.86H159.9a46.31,46.31,0,0,0-46.27,46.27v9.68H179v-9.68a46.19,46.19,0,0,1,16-35c.72-3.09,1.61-6.24,2.66-9.42Z"/><path class="cls-12" d="M307.06,52.58c-1.85-1.24-3-1.87-3-1.87-12.52-6.59-20,.46-23.51,5.47a19.6,19.6,0,0,0-2.73,6.37c-6.62,26.21-62.62,39.76-62.62,39.76-96.5,33.44-82.92,120.2-82.92,120.2h0c17.68-25.66,47.18-35.26,68.11-38.83a106.12,106.12,0,0,1,28.76-50.76c12.13-11.94,28.73-22.75,51.42-30.61,0,0,31.71-7.68,50.23-22.65A68.32,68.32,0,0,0,307.06,52.58Z"/><path class="cls-13" d="M96.42,25.8a135.64,135.64,0,0,1,32.41,8h0a146.69,146.69,0,0,1,42.27,25A104.43,104.43,0,0,1,183,70.3"/><path class="cls-14" d="M401.83,263.57,373.52,428.2a53.42,53.42,0,0,1-52.65,44.37H189.58a53.41,53.41,0,0,1-52.64-44.37l-28.38-165a9.79,9.79,0,0,1,5.07-10.34c8.17-4.26,23.49-8.77,40.38,4,0,0,17.4,14.38,38.59,0,0,0,21.94-15.13,43.14,0,0,0,21.19,12.11,43.13,0,0,0,22.7-14.39,40.87,0,0,0,21.94,12.86,39.35,0,0,0,18.46-11.91,36.89-4A9.84,9.84,0,0,1,401.83,263.57Z"/><path class="cls-15" d="M219.42,428.2,191,263.21a9.75,9.75,0,0,1,.78-5.81C171,270.9,154,256.9,154,256.9c-16.89-12.8-32.21-8.29-40.38-4a9.79,9.79,0,0,0-5.07,10.34l28.38,165a53.41,53.41,0,0,0,52.64,44.37h82.49A53.42,53.42,0,0,1,219.42,428.2Z"/><path class="cls-16" d="M253.72,318.19h2.95a7,7,0,0,1,7,7V472.57a0,0,0,0,1,0,0h-17a0,0,0,0,1,0,0V325.23A7,7,0,0,1,253.72,318.19Z"/><path class="cls-16" d="M210.21,472.57H193.08L177.14,328.06a8.52,8.52,0,0,1,16.93-1.88Z"/><path class="cls-16" d="M334.62,328.06,318.68,472.57H301.55l16.14-146.39a8.52,8.52,0,0,1,16.93,1.88Z"/><circle class="cls-17" cx="301.55" cy="83.18" r="16.84"/><circle class="cls-18" cx="183.79" cy="152.11" r="16.84"/><rect class="cls-5" x="113.63" y="360.18" width="288.33" height="64" rx="14.53"/><path class="cls-4" d="M208.5,360.18H128.93a15.1,15.1,0,0,0-2.87.29,14.53,14.53,0,0,0-11.65,14.24v35a14.52,14.52,0,0,0,14.52,14.52H219.5Z"/><path class="cls-4" d="M303,399.34c0-33.57-27.72-43.52-41-46.36a22.47,22.47,0,0,0-25.47,34,16.57,16.57,0,0,1-.09,18.54,22.34,22.34,0,0,0-3.81,12.58c0,12.56,10.85,22.54,23.42,22.4C304.55,440,303,399.34,303,399.34Z"/><path class="cls-19" d="M300.09,398.53c0-24.83-20.51-32.19-30.31-34.29a16.61,16.61,0,0,0-18.84,25.17,12.27,12.27,0,0,1-.07,13.72,16.54,16.54,0,0,0-2.81,9.3c0,9.29,8,16.67,17.32,16.57C301.23,428.61,300.09,398.53,300.09,398.53Z"/><path class="cls-4" d="M300.1,399.34c0-33.57,27.72-43.52,41-46.36a22.47,22.47,0,0,1,25.47,34,16.57,16.57,0,0,0,.09,18.54,22.34,22.34,0,0,1,3.81,12.58c0,12.56-10.85,22.54-23.42,22.4C298.56,440,300.1,399.34,300.1,399.34Z"/><path class="cls-19" d="M303,398.53c0-24.83,20.51-32.19,30.31-34.29a16.61,16.61,0,0,1,18.84,25.17,12.27,12.27,0,0,0,.07,13.72,16.62,16.62,0,0,1,2.82,9.3c0,9.29-8,16.67-17.33,16.57C301.87,428.61,303,398.53,303,398.53Z"/><path class="cls-4" d="M321.74,399.34a18.74,18.74,0,0,1-37.47,0,18.49,18.49,0,0,1,1.12-6.38,18.73,18.73,0,0,1,36.35,6.38Z"/><path class="cls-5" d="M320.63,393a18.73,18.73,0,0,1-35.24,0,18.74,18.74,0,0,1,35.24,0Z"/></g></svg>